<?xml version="1.0" encoding="utf-8"?>
<!-- Generator: Adobe Illustrator 25.0.1, SVG Export Plug-In . SVG Version: 6.00 Build 0)  -->
<svg version="1.1" id="Layer_1" xmlns="http://www.w3.org/2000/svg" xmlns:xlink="http://www.w3.org/1999/xlink" x="0px" y="0px"
	 viewBox="0 0 512 335.5" style="enable-background:new 0 0 512 335.5;" xml:space="preserve">
<style type="text/css">
	.st0{fill:#41479B;}
	.st1{fill:#FFE15A;}
</style>
<path class="st0" d="M473.7,0H38.3C17.2,0,0,17.2,0,38.3v258.8c0,21.2,17.2,38.3,38.3,38.3h435.3c21.2,0,38.3-17.2,38.3-38.3V38.3
	C512,17.2,494.8,0,473.7,0z"/>
<g>
	<path class="st1" d="M259.6,38.4l3.5,10.6l11.2,0.1c1.4,0,2,1.9,0.9,2.7l-9,6.6l3.4,10.7c0.4,1.4-1.1,2.5-2.3,1.7l-9.1-6.5
		l-9.1,6.5c-1.2,0.8-2.8-0.3-2.3-1.7l3.4-10.7l-9-6.6c-1.2-0.9-0.6-2.7,0.9-2.7l11.2-0.1l3.5-10.6C257.2,37,259.1,37,259.6,38.4z"/>
	<path class="st1" d="M259.6,266.3l3.5,10.6l11.2,0.1c1.4,0,2,1.9,0.9,2.7l-9,6.6l3.4,10.7c0.4,1.4-1.1,2.5-2.3,1.7l-9.1-6.5
		l-9.1,6.5c-1.2,0.8-2.8-0.3-2.3-1.7l3.4-10.7l-9-6.6c-1.2-0.9-0.6-2.7,0.9-2.7l11.2-0.1l3.5-10.6
		C257.2,264.9,259.1,264.9,259.6,266.3z"/>
	<path class="st1" d="M373.5,152.3l3.5,10.6l11.2,0.1c1.4,0,2,1.9,0.9,2.7l-9,6.6l3.4,10.7c0.4,1.4-1.1,2.5-2.3,1.7l-9.1-6.5
		l-9.1,6.5c-1.2,0.8-2.8-0.3-2.3-1.7l3.4-10.7l-9-6.6c-1.2-0.9-0.6-2.7,0.9-2.7l11.2-0.1l3.5-10.6C371.1,151,373.1,151,373.5,152.3z
		"/>
	<path class="st1" d="M145.7,152.3l3.5,10.6l11.2,0.1c1.4,0,2,1.9,0.9,2.7l-9,6.6l3.4,10.7c0.4,1.4-1.1,2.5-2.3,1.7l-9.1-6.5
		l-9.1,6.5c-1.2,0.8-2.8-0.3-2.3-1.7l3.4-10.7l-9-6.6c-1.2-0.9-0.6-2.7,0.9-2.7l11.2-0.1l3.5-10.6C143.3,151,145.2,151,145.7,152.3z
		"/>
	<path class="st1" d="M162.8,92.8l3.5,10.6l11.2,0.1c1.4,0,2,1.9,0.9,2.7l-9,6.6l3.4,10.7c0.4,1.4-1.1,2.5-2.3,1.7l-9.1-6.5
		l-9.1,6.5c-1.2,0.8-2.8-0.3-2.3-1.7l3.4-10.7l-9-6.6c-1.2-0.9-0.6-2.7,0.9-2.7l11.2-0.1l3.5-10.6C160.4,91.5,162.3,91.5,162.8,92.8
		z"/>
	<path class="st1" d="M360.1,206.8l3.5,10.6l11.2,0.1c1.4,0,2,1.9,0.9,2.7l-9,6.6l3.4,10.7c0.4,1.4-1.1,2.5-2.3,1.7l-9.1-6.5
		l-9.1,6.5c-1.2,0.8-2.8-0.3-2.3-1.7l3.4-10.7l-9-6.6c-1.2-0.9-0.6-2.7,0.9-2.7l11.2-0.1l3.5-10.6
		C357.7,205.4,359.6,205.4,360.1,206.8z"/>
	<path class="st1" d="M318.4,51.1l3.5,10.6l11.2,0.1c1.4,0,2,1.9,0.9,2.7l-9,6.6l3.4,10.7c0.4,1.4-1.1,2.5-2.3,1.7L317,77l-9.1,6.5
		c-1.2,0.8-2.8-0.3-2.3-1.7l3.4-10.7l-9-6.6c-1.2-0.9-0.6-2.7,0.9-2.7l11.2-0.1l3.5-10.6C316,49.8,317.9,49.8,318.4,51.1z"/>
	<path class="st1" d="M204.5,248.5l3.5,10.6l11.2,0.1c1.4,0,2,1.9,0.9,2.7l-9,6.6l3.4,10.7c0.4,1.4-1.1,2.5-2.3,1.7l-9.1-6.5
		l-9.1,6.5c-1.2,0.8-2.8-0.3-2.3-1.7l3.4-10.7l-9-6.6c-1.2-0.9-0.6-2.7,0.9-2.7l11.2-0.1l3.5-10.6
		C202.1,247.1,204,247.1,204.5,248.5z"/>
	<path class="st1" d="M357.2,92.8l-3.5,10.6l-11.2,0.1c-1.4,0-2,1.9-0.9,2.7l9,6.6l-3.4,10.7c-0.4,1.4,1.1,2.5,2.3,1.7l9.1-6.5
		l9.1,6.5c1.2,0.8,2.8-0.3,2.3-1.7l-3.4-10.7l9-6.6c1.2-0.9,0.6-2.7-0.9-2.7l-11.2-0.1l-3.5-10.6C359.6,91.5,357.7,91.5,357.2,92.8z
		"/>
	<path class="st1" d="M159.9,206.8l-3.5,10.6l-11.2,0.1c-1.4,0-2,1.9-0.9,2.7l9,6.6l-3.4,10.7c-0.4,1.4,1.1,2.5,2.3,1.7l9.1-6.5
		l9.1,6.5c1.2,0.8,2.8-0.3,2.3-1.7l-3.4-10.7l9-6.6c1.2-0.9,0.6-2.7-0.9-2.7l-11.2-0.1l-3.5-10.6
		C162.3,205.4,160.4,205.4,159.9,206.8z"/>
	<path class="st1" d="M201.6,51.1l-3.5,10.6l-11.2,0.1c-1.4,0-2,1.9-0.9,2.7l9,6.6l-3.4,10.7c-0.4,1.4,1.1,2.5,2.3,1.7L203,77
		l9.1,6.5c1.2,0.8,2.8-0.3,2.3-1.7l-3.4-10.7l9-6.6c1.2-0.9,0.6-2.7-0.9-2.7L208,61.8l-3.5-10.6C204,49.8,202.1,49.8,201.6,51.1z"/>
	<path class="st1" d="M315.5,248.5l-3.5,10.6l-11.2,0.1c-1.4,0-2,1.9-0.9,2.7l9,6.6l-3.4,10.7c-0.4,1.4,1.1,2.5,2.3,1.7l9.1-6.5
		l9.1,6.5c1.2,0.8,2.8-0.3,2.3-1.7l-3.4-10.7l9-6.6c1.2-0.9,0.6-2.7-0.9-2.7l-11.2-0.1l-3.5-10.6C317.9,247.1,316,247.1,315.5,248.5
		z"/>
</g>
</svg>
