<?xml version="1.0" encoding="utf-8"?>
<!-- Generator: Adobe Illustrator 25.0.1, SVG Export Plug-In . SVG Version: 6.00 Build 0)  -->
<svg version="1.1" id="Layer_1" xmlns="http://www.w3.org/2000/svg" xmlns:xlink="http://www.w3.org/1999/xlink" x="0px" y="0px"
	 viewBox="0 0 512 277.3" style="enable-background:new 0 0 512 277.3;" xml:space="preserve">
<g>
	<g>
		<path d="M138.7,42.7c-52.9,0-96,43.1-96,96s43.1,96,96,96s96-43.1,96-96S191.6,42.7,138.7,42.7z"/>
	</g>
</g>
<g>
	<g>
		<path d="M373.3,0H138.7C62.2,0,0,62.2,0,138.7s62.2,138.7,138.7,138.7h234.7c76.5,0,138.7-62.2,138.7-138.7S449.8,0,373.3,0z
			 M373.3,256H138.7C74,256,21.3,203.4,21.3,138.7S74,21.3,138.7,21.3h234.7c64.7,0,117.3,52.6,117.3,117.3S438,256,373.3,256z"/>
	</g>
</g>
<g>
	<g>
		<path d="M288,85.3c-17.6,0-32,14.4-32,32V160c0,17.6,14.4,32,32,32s32-14.4,32-32v-42.7C320,99.7,305.6,85.3,288,85.3z M298.7,160
			c0,5.9-4.8,10.7-10.7,10.7s-10.7-4.8-10.7-10.7v-42.7c0-5.9,4.8-10.7,10.7-10.7s10.7,4.8,10.7,10.7V160z"/>
	</g>
</g>
<g>
	<g>
		<path d="M384,85.3h-32c-5.9,0-10.7,4.8-10.7,10.7v85.3c0,5.9,4.8,10.7,10.7,10.7s10.7-4.8,10.7-10.7v-74.7H384
			c5.9,0,10.7-4.8,10.7-10.7S389.9,85.3,384,85.3z"/>
	</g>
</g>
<g>
	<g>
		<path d="M373.3,128H352c-5.9,0-10.7,4.8-10.7,10.7s4.8,10.7,10.7,10.7h21.3c5.9,0,10.7-4.8,10.7-10.7S379.2,128,373.3,128z"/>
	</g>
</g>
<g>
	<g>
		<path d="M448,85.3h-32c-5.9,0-10.7,4.8-10.7,10.7v85.3c0,5.9,4.8,10.7,10.7,10.7s10.7-4.8,10.7-10.7v-74.7H448
			c5.9,0,10.7-4.8,10.7-10.7S453.9,85.3,448,85.3z"/>
	</g>
</g>
<g>
	<g>
		<path d="M437.3,128H416c-5.9,0-10.7,4.8-10.7,10.7s4.8,10.7,10.7,10.7h21.3c5.9,0,10.7-4.8,10.7-10.7S443.2,128,437.3,128z"/>
	</g>
</g>
</svg>
